<?xml version="1.0" encoding="utf-8"?>
<!-- Generator: Adobe Illustrator 16.0.4, SVG Export Plug-In . SVG Version: 6.00 Build 0)  -->
<!DOCTYPE svg PUBLIC "-//W3C//DTD SVG 1.1//EN" "http://www.w3.org/Graphics/SVG/1.1/DTD/svg11.dtd">
<svg version="1.1" id="Layer_1" xmlns="http://www.w3.org/2000/svg" xmlns:xlink="http://www.w3.org/1999/xlink" x="0px" y="0px"
	 width="144.902px" height="46.662px" viewBox="80.096 24.297 144.902 46.662"
	 enable-background="new 80.096 24.297 144.902 46.662" xml:space="preserve">
<title>EF_WHT_OR_svg</title>
<g id="Layer_1_1_">
	<path fill="#F79422" d="M216.562,67.487l-4.451-5.642h-1.39v9.093h1.713v-6.153l4.773,6.153h1.062v-9.093h-1.708V67.487z
		 M199.916,63.236c2.138,0,2.994,1.713,2.969,3.24c-0.025,1.528-0.831,3.104-2.969,3.104c-2.139,0-2.944-1.596-2.98-3.078
		C196.9,65.021,197.797,63.236,199.916,63.236z M199.916,61.697c-3.139,0-4.668,2.4-4.668,4.79s1.478,4.683,4.668,4.683
		c3.189,0,4.615-2.35,4.656-4.698s-1.508-4.795-4.656-4.795V61.697z M189.028,70.959v-9.113h-1.677v9.093L189.028,70.959z
		 M176.946,70.959h1.713v-7.554h2.877v-1.538h-7.452v1.538h2.883L176.946,70.959z M167.248,67.651h-3.373l1.687-3.872
		L167.248,67.651z M168.7,70.959h1.866l-4.072-9.092h-1.865l-4.072,9.092h1.855l0.775-1.713h4.748L168.7,70.959z M149.213,63.487
		h1.867c1.974,0,2.799,1.421,2.84,2.836s-0.779,2.989-2.84,2.989h-1.867V63.487z M151.08,61.867h-3.564v9.092h3.564
		c3.179,0,4.579-2.323,4.538-4.615c-0.041-2.293-1.405-4.498-4.519-4.498L151.08,61.867z M139.608,67.508l-4.446-5.641h-1.39v9.092
		h1.712v-6.154l4.77,6.154h1.066v-9.113h-1.712V67.508z M125.557,61.871v5.201c0,1.538-0.8,2.508-2.216,2.508
		c-1.415,0-2.349-0.873-2.349-2.508v-5.201h-1.697v5.201c0,2.738,1.856,4.061,4.031,4.061c2.287,0,3.933-1.374,3.933-4.061v-5.201
		H125.557z M108.633,63.236c2.139,0,2.995,1.713,2.969,3.24c-0.025,1.528-0.831,3.104-2.969,3.104c-2.138,0-2.943-1.596-2.984-3.078
		C105.608,65.021,106.49,63.236,108.633,63.236z M108.633,61.697c-3.138,0-4.667,2.4-4.667,4.79s1.477,4.683,4.667,4.683
		s4.615-2.35,4.656-4.698s-1.533-4.795-4.656-4.795V61.697z M93.356,70.938V67.58h4.554V66h-4.554v-2.477h4.81v-1.652h-6.523v9.067
		H93.356z"/>
	<path fill="#FFFFFF" d="M218.438,52.334h-11.344v-4.575h10.964v-3.554h-10.964v-4.687h11.369v-3.703h-15.185v20.276h15.159V52.334z
		 M197.926,39.169c-1.539-3.123-4.801-4.021-7.954-4.021c-3.733,0.031-7.841,1.738-7.841,5.902c0,4.539,3.82,5.641,7.953,6.154
		c2.693,0.287,4.688,1.067,4.688,2.979c0,2.194-2.256,3.036-4.656,3.036s-4.8-0.984-5.697-3.21l-3.185,1.646
		c1.508,3.703,4.687,4.975,8.825,4.975c4.514,0,8.503-1.934,8.503-6.446c0-4.831-3.933-5.933-8.159-6.451
		c-2.426-0.292-4.508-0.785-4.508-2.564c0-1.503,1.359-2.688,4.189-2.688c2.201,0,4.104,1.098,4.806,2.256L197.926,39.169z
		 M170.582,35.815c-3.185-0.031-6.364,0-9.549,0v20.276h3.82v-5.958h5.729C180.5,50.133,180.475,35.815,170.582,35.815z
		 M164.854,39.487h5.729c4.856,0,4.887,7.179,0,7.179h-5.729V39.487z M155.623,56.118V35.815h-3.789v20.276L155.623,56.118z
		 M133.059,35.841v20.277h14.23v-3.554h-10.395V35.815L133.059,35.841z M126.808,50.912c-1.372,1.309-3.192,2.042-5.087,2.052
		c-5.005,0-6.944-3.502-6.975-6.856c-0.031-3.354,2.082-7.031,6.975-7.031c1.816-0.025,3.57,0.662,4.887,1.913l2.564-2.461
		c-1.967-1.977-4.643-3.084-7.431-3.077c-7.318,0-10.77,5.379-10.733,10.672c0.036,5.293,3.21,10.441,10.733,10.441
		c2.864,0.07,5.637-1.014,7.692-3.011L126.808,50.912z M106.808,52.334H95.433v-4.575h10.964v-3.554H95.433v-4.687h11.37v-3.703
		H91.644v20.276h15.159L106.808,52.334z"/>
	<path fill="#F79422" d="M85.326,33.754c4.615-7.231,13.923-9.744,21.667-6.282c-0.169-0.118-0.338-0.241-0.513-0.354
		c-7.835-5.179-18.385-3.025-23.563,4.811c-5.178,7.835-3.024,18.384,4.811,23.562c0.13,0.086,0.261,0.17,0.394,0.253l0.539,0.328
		C82.264,50.482,80.685,40.99,85.326,33.754z"/>
	<path fill="#FFFFFF" d="M221.818,36.174h-0.816v2.359h-0.512v-2.359h-0.816v-0.513h2.154L221.818,36.174z"/>
	<path fill="#FFFFFF" d="M224.998,38.533h-0.514l-0.251-1.974l-0.754,1.359l-0.713-1.303l-0.251,1.918h-0.549l0.385-2.872h0.436
		l0.718,1.308l0.702-1.308h0.432L224.998,38.533z"/>
</g>
</svg>
