<?xml version="1.0" encoding="utf-8"?>
<!-- Generator: Adobe Illustrator 16.0.4, SVG Export Plug-In . SVG Version: 6.00 Build 0)  -->
<!DOCTYPE svg PUBLIC "-//W3C//DTD SVG 1.1//EN" "http://www.w3.org/Graphics/SVG/1.1/DTD/svg11.dtd">
<svg version="1.1" id="Layer_1" xmlns="http://www.w3.org/2000/svg" xmlns:xlink="http://www.w3.org/1999/xlink" x="0px" y="0px"
	 width="209.641px" height="60.82px" viewBox="49.855 18.547 209.641 60.82" enable-background="new 49.855 18.547 209.641 60.82"
	 xml:space="preserve">
<title>eclipse_volttron_days</title>
<path fill="#33FF9B" d="M67.764,29.932c4.425,0,8.85,0,13.273,0c3.507,0,5.43,3.062,3.871,6.197
	c-4.175,8.382-8.362,16.76-12.562,25.135c-0.99,1.988-2.571,2.994-4.763,3.015c-3.273,0.026-6.544,0.042-9.815,0
	c-2.715-0.038-4.417-1.708-4.753-4.422c-1.018-8.218-2.055-16.434-3.11-24.647c-0.387-3.006,1.543-5.262,4.579-5.267
	C58.917,29.932,63.343,29.928,67.764,29.932z M58.82,43.808c0.125-0.419,0.208-0.715,0.305-1.005
	c0.908-2.747,1.822-5.492,2.724-8.241c0.285-0.867,0.085-1.189-0.795-1.199c-2.181-0.023-4.362-0.023-6.544,0
	c-0.961,0.01-1.283,0.409-1.164,1.364c1.025,8.248,2.053,16.496,3.085,24.744c0.127,1.02,0.487,1.33,1.541,1.341
	c3.147,0,6.294-0.017,9.441,0.013c0.928,0.009,1.497-0.354,1.909-1.184c4.131-8.301,8.274-16.596,12.428-24.887
	c0.502-1.005,0.278-1.383-0.837-1.388c-3.271-0.012-6.544,0.01-9.815-0.015c-0.705,0-1.054,0.278-1.303,0.926
	c-0.857,2.236-1.777,4.442-2.666,6.664c-0.087,0.218-0.127,0.454-0.226,0.812h6.04C69.32,45.595,65.831,49.29,62.34,53l-0.146-0.092
	l2.554-9.1H58.82z"/>
<path fill="#33FF9B" d="M194.578,62.275c1.129-3.618,2.209-7.076,3.35-10.729c-1.824,0-3.486-0.041-5.143,0.046
	c-0.266,0.014-0.61,0.575-0.732,0.944c-0.891,2.723-1.732,5.461-2.594,8.192c-0.168,0.502-0.336,1.005-0.514,1.507h-5.439
	c0.043-0.319,0.104-0.637,0.183-0.949c2.597-8.279,5.19-16.559,7.783-24.837c0.235-0.759,0.6-0.988,1.387-0.979
	c4.187,0.042,8.362,0.01,12.545,0.025c2.081,0,2.847,1.03,2.246,2.995c-0.707,2.308-1.508,4.591-2.161,6.914
	c-0.471,1.675-1.377,2.847-3.182,3.435c1.453,0.78,1.53,1.881,1.084,3.231c-1.016,3.07-1.969,6.16-2.904,9.254
	c-0.21,0.691-0.503,1.004-1.271,0.965C197.744,62.23,196.269,62.275,194.578,62.275z M201.286,40.875
	c-1.749,0-3.376-0.014-5.005,0.017c-0.227,0-0.594,0.167-0.654,0.35c-0.549,1.604-1.045,3.228-1.604,4.994
	c1.806,0,3.396,0.029,4.982-0.025c0.332-0.056,0.616-0.267,0.768-0.568C200.305,44.108,200.766,42.542,201.286,40.875z"/>
<path fill="#33FF9B" d="M114.365,62.275c-1.76,0-3.517,0.017-5.284,0c-1.908-0.023-2.764-1.092-2.209-2.873
	c2.198-7.067,4.423-14.128,6.673-21.18c0.51-1.625,2.021-2.727,3.725-2.715c3.646-0.037,7.292-0.037,10.938,0
	c1.857,0.017,2.618,1.065,2.062,2.847c-2.188,7.028-4.396,14.05-6.624,21.067c-0.582,1.828-2.04,2.832-3.995,2.847
	C117.889,62.289,116.127,62.275,114.365,62.275z M123.885,40.867c-1.625,0-3.015,0.049-4.401-0.017
	c-0.861-0.04-1.287,0.191-1.554,1.085c-1.402,4.654-2.886,9.283-4.336,13.924c-0.094,0.297-0.154,0.607-0.258,1.029
	c1.614,0,3.124-0.039,4.629,0.016c0.715,0.024,0.981-0.254,1.172-0.91c0.705-2.39,1.477-4.76,2.226-7.136
	C122.186,46.262,123.008,43.661,123.885,40.867z"/>
<path fill="#33FF9B" d="M213.01,62.273c-1.802,0-3.605,0.02-5.409,0c-1.903-0.025-2.717-1.09-2.157-2.885
	c2.181-6.99,4.377-13.976,6.591-20.956c0.593-1.871,1.998-2.911,3.936-2.924c3.565-0.024,7.132-0.024,10.698,0
	c1.924,0.012,2.719,1.054,2.153,2.871c-2.19,7.034-4.402,14.058-6.634,21.069c-0.562,1.773-2.01,2.801-3.89,2.824
	C216.536,62.292,214.773,62.273,213.01,62.273z M211.811,56.896c1.566,0,2.995-0.05,4.416,0.019c0.865,0.04,1.301-0.199,1.542-1.089
	c0.532-1.972,1.189-3.907,1.802-5.862c0.941-2.995,1.889-5.986,2.848-9.052h-5.589C215.174,46.201,213.513,51.482,211.811,56.896
	L211.811,56.896z"/>
<path fill="#33FF9B" d="M225.671,62.242c2.829-8.981,5.61-17.836,8.407-26.735c4.777,0,9.486-0.045,14.195,0.027
	c1.586,0.023,2.205,1.212,1.675,2.938c-1.482,4.765-2.998,9.52-4.497,14.28c-0.885,2.809-1.801,5.609-2.621,8.438
	c-0.255,0.881-0.67,1.149-1.551,1.103c-1.389-0.072-2.782-0.019-4.412-0.019c2.244-7.152,4.449-14.181,6.713-21.398
	c-1.783,0-3.441-0.049-5.092,0.045c-0.286,0.017-0.67,0.6-0.789,0.987c-1.996,6.237-3.955,12.482-5.92,18.724
	c-0.168,0.539-0.367,1.068-0.555,1.609L225.671,62.242z"/>
<path fill="#33FF9B" d="M111.414,35.496c-0.308,0.549-0.477,0.871-0.67,1.172c-4.935,8.214-9.867,16.43-14.794,24.648
	c-0.436,0.73-0.91,1.006-1.745,0.969c-1.424-0.066-2.848-0.019-4.469-0.019c0.248-8.934,0.493-17.753,0.74-26.684h6.263
	L94.96,54.167l0.196,0.063c0.196-0.335,0.404-0.67,0.586-1.005c2.963-5.563,5.922-11.131,8.876-16.703
	c0.384-0.727,0.796-1.092,1.675-1.045C107.922,35.556,109.557,35.496,111.414,35.496z"/>
<path fill="#33FF9B" d="M149.005,62.275l6.715-21.395h-5.552l1.674-5.36h16.764c-0.539,1.73-1.031,3.385-1.594,5.017
	c-0.063,0.181-0.531,0.308-0.814,0.315c-1.27,0.033-2.542,0.067-3.809,0c-0.809-0.044-1.119,0.263-1.354,1.017
	c-1.98,6.406-4.033,12.79-5.994,19.202c-0.298,0.973-0.711,1.29-1.701,1.225C151.959,62.207,150.568,62.275,149.005,62.275z"/>
<path fill="#33FF9B" d="M188.205,35.507c-0.537,1.735-1.004,3.34-1.561,4.911c-0.086,0.24-0.631,0.434-0.971,0.444
	c-1.55,0.047-3.104,0.02-4.714,0.02c-1.444,4.581-2.866,9.098-4.289,13.613c-0.724,2.302-1.481,4.595-2.161,6.907
	c-0.197,0.67-0.485,0.92-1.189,0.896c-1.507-0.051-3.014-0.016-4.725-0.016l6.699-21.369h-5.545
	c0.533-1.719,1.005-3.312,1.543-4.884c0.135-0.271,0.394-0.458,0.693-0.502C177.342,35.492,182.699,35.507,188.205,35.507z"/>
<path fill="#33FF9B" d="M134.859,56.9h11.173c-0.554,1.752-1.052,3.385-1.603,4.998c-0.062,0.178-0.427,0.358-0.653,0.358
	c-5.323,0.021-10.647,0.017-16.112,0.017c0.109-0.473,0.167-0.854,0.285-1.221c2.558-8.156,5.135-16.307,7.663-24.472
	c0.27-0.871,0.67-1.151,1.552-1.105c1.387,0.074,2.78,0.02,4.41,0.02C139.33,42.647,137.125,49.675,134.859,56.9z"/>
<path fill="#FFFFFF" d="M100.214,75.303c-0.318,0.77-0.794,1.463-1.398,2.036c-0.624,0.586-1.356,1.046-2.156,1.352
	c-0.877,0.337-1.81,0.505-2.75,0.494h-4.769V66.394h4.769c0.939-0.011,1.871,0.154,2.75,0.484c0.8,0.3,1.532,0.756,2.156,1.34
	c0.602,0.571,1.079,1.263,1.398,2.028c0.657,1.62,0.657,3.433,0,5.053V75.303z M98.037,71.055c-0.205-0.516-0.51-0.986-0.898-1.385
	c-0.399-0.4-0.876-0.713-1.402-0.918c-0.583-0.228-1.206-0.342-1.832-0.335h-2.526v8.734h2.512c0.629,0.011,1.254-0.097,1.842-0.316
	c0.525-0.198,1.002-0.504,1.402-0.897c0.389-0.395,0.694-0.862,0.898-1.377c0.427-1.13,0.427-2.376,0-3.506H98.037z"/>
<path fill="#FFFFFF" d="M114.796,79.185h-2.375l-1.298-3.089h-6.048l-1.316,3.089h-2.301l5.628-12.882h2.083L114.796,79.185z
	 M108.096,68.988l-2.192,5.117h4.402L108.096,68.988z"/>
<path fill="#FFFFFF" d="M121.008,79.185h-2.266v-5.043l-5.086-7.748h2.649l3.583,5.665l3.618-5.665h2.576l-5.073,7.692V79.185z"/>
<path fill="#FFFFFF" d="M129.431,70.395c0.108,0.209,0.27,0.387,0.467,0.513c0.29,0.188,0.604,0.337,0.935,0.438
	c0.397,0.135,0.901,0.273,1.508,0.421c0.607,0.149,1.204,0.339,1.787,0.566c0.474,0.177,0.914,0.433,1.301,0.759
	c0.333,0.285,0.598,0.641,0.779,1.04c0.185,0.442,0.275,0.919,0.265,1.398c0.01,0.56-0.104,1.115-0.335,1.626
	c-0.216,0.467-0.535,0.879-0.933,1.206c-0.425,0.343-0.913,0.597-1.437,0.749c-0.598,0.176-1.219,0.262-1.842,0.256
	c-0.967,0.004-1.926-0.166-2.832-0.502c-0.929-0.35-1.782-0.873-2.513-1.545l1.354-1.607c0.564,0.499,1.198,0.914,1.881,1.232
	c0.68,0.297,1.416,0.445,2.157,0.434c0.693,0,1.245-0.146,1.653-0.438c0.394-0.265,0.624-0.713,0.611-1.188
	c0.004-0.214-0.037-0.425-0.119-0.622c-0.098-0.203-0.25-0.377-0.439-0.502c-0.272-0.182-0.568-0.328-0.879-0.432
	c-0.478-0.165-0.964-0.306-1.457-0.421c-0.618-0.14-1.226-0.316-1.822-0.53c-0.484-0.168-0.937-0.415-1.34-0.73
	c-0.354-0.283-0.638-0.646-0.826-1.061c-0.202-0.479-0.298-0.996-0.283-1.516c-0.004-0.527,0.11-1.049,0.335-1.525
	c0.213-0.449,0.519-0.85,0.896-1.173c0.403-0.341,0.87-0.599,1.373-0.759c0.566-0.182,1.158-0.271,1.752-0.265
	c0.861-0.013,1.718,0.127,2.531,0.412c0.764,0.281,1.477,0.685,2.11,1.196l-1.206,1.699c-0.534-0.398-1.117-0.727-1.735-0.979
	c-0.552-0.219-1.141-0.333-1.735-0.334c-0.658,0-1.169,0.149-1.536,0.449c-0.344,0.255-0.547,0.658-0.548,1.086
	C129.302,69.971,129.344,70.191,129.431,70.395z"/>
<path fill="#FFFFFF" d="M166.943,28.854h-6.82v-2.742h6.577v-2.134h-6.577v-2.812h6.82v-2.221h-9.094v12.165h9.094V28.854z
	 M154.645,20.959c-0.922-1.875-2.881-2.412-4.773-2.412c-2.238,0.017-4.703,1.041-4.703,3.539c0,2.725,2.291,3.385,4.773,3.685
	c1.613,0.167,2.811,0.641,2.811,1.787c0,1.318-1.354,1.822-2.794,1.822c-1.476,0-2.881-0.59-3.418-1.926l-1.909,0.988
	c0.903,2.222,2.812,2.986,5.292,2.986c2.708,0,5.104-1.172,5.104-3.871c0-2.898-2.362-3.558-4.894-3.871
	c-1.459-0.167-2.708-0.467-2.708-1.525c0-0.903,0.816-1.615,2.513-1.615c1.317,0,2.464,0.66,2.881,1.353L154.645,20.959z
	 M138.23,18.95c-1.909-0.017-3.818,0-5.726,0v12.165h2.29v-3.578h3.437c5.953,0,5.936-8.59,0.002-8.59L138.23,18.95z
	 M134.794,21.127h3.437c2.915,0,2.933,4.304,0,4.304h-3.435L134.794,21.127z M129.267,31.106v-12.16h-2.276v12.165L129.267,31.106z
	 M115.735,18.941v12.165h8.542v-2.112h-6.248V18.944L115.735,18.941z M111.98,28.004c-0.825,0.785-1.917,1.226-3.055,1.233
	c-3.001,0-4.164-2.101-4.187-4.114s1.25-4.216,4.187-4.216c1.09-0.016,2.144,0.395,2.935,1.146l1.526-1.476
	c-1.179-1.191-2.785-1.86-4.46-1.857c-4.39,0-6.455,3.228-6.438,6.403c0.017,3.176,1.928,6.266,6.438,6.266
	c1.754,0,3.368-0.573,4.616-1.805L111.98,28.004z M99.977,28.854h-6.829v-2.742h6.577v-2.134h-6.577v-2.812h6.82v-2.221h-9.091
	v12.165h9.093L99.977,28.854z"/>
<path fill="#33FF9B" d="M254.549,38.736h-0.641l0.542-2.594h-0.913l0.109-0.519h2.451l-0.106,0.519h-0.901L254.549,38.736z"/>
<path fill="#33FF9B" d="M257.641,38.736h-0.607l-0.113-2.603l-0.502,2.603h-0.566l0.65-3.113h0.912l0.096,2.177l1.062-2.177h0.924
	l-0.652,3.113h-0.584l0.613-2.583L257.641,38.736z"/>
</svg>
